<svg width="30" height="30" viewBox="0 0 30 30" fill="none" xmlns="http://www.w3.org/2000/svg">
<path d="M15 30C23.2843 30 30 23.2843 30 15C30 6.71573 23.2843 0 15 0C6.71573 0 0 6.71573 0 15C0 23.2843 6.71573 30 15 30Z" fill="#F5EEE5"/>
<path d="M19.5 22.77L27.87 25.08C28.83 25.41 29.58 26.13 30 27.06V30H0V27.06C0.39 26.13 1.17 25.41 2.13 25.08L10.5 22.77V18.3H19.5V22.77Z" fill="#E6C19C"/>
<path d="M0 17.4H30V30H0V17.4ZM15 26.4C18.3 26.4 21 24.51 21 22.2C21 19.89 18.3 18 15 18C11.7 18 9 19.89 9 22.2C9 24.51 11.7 26.4 15 26.4Z" fill="#E6A422"/>
<path d="M15 23.4C14.49 23.4 13.83 23.28 13.38 23.07C12.87 22.8 10.98 21.24 10.32 20.58C9.48 19.68 9.06 18.54 8.94 16.59C8.82 14.64 8.31 7.68 8.31 6.09C8.31 3.84 10.02 0.330002 14.94 0.330002H14.97H15C19.95 0.360002 21.63 3.84 21.63 6.09C21.63 7.68 21.12 14.64 21 16.59C20.88 18.54 20.46 19.65 19.62 20.58C18.99 21.27 17.1 22.8 16.56 23.07C16.17 23.28 15.51 23.4 15 23.4Z" fill="#D4B08C"/>
<path d="M15 17.4C11.19 17.4 8.10001 19.62 8.10001 22.35C8.10001 25.08 11.19 27.3 15 27.3C18.81 27.3 21.9 25.08 21.9 22.35C21.9 19.62 18.81 17.4 15 17.4ZM15 26.1C11.85 26.1 9.30001 24.3 9.30001 22.05C9.30001 19.8 11.85 18 15 18C18.15 18 20.7 19.8 20.7 22.05C20.7 24.3 18.15 26.1 15 26.1Z" fill="#D98C21"/>
<path d="M15 22.2C14.55 22.2 13.95 22.11 13.56 21.93C13.08 21.72 11.4 20.55 10.83 20.04C10.08 19.35 9.69 18.51 9.57 17.04C9.45 15.57 9 10.35 9 9.15C9 7.44 10.53 4.8 15 4.8C19.47 4.8 21 7.44 21 9.15C21 10.35 20.55 15.6 20.43 17.07C20.31 18.54 19.95 19.38 19.17 20.07C18.6 20.58 16.89 21.75 16.44 21.96C16.05 22.11 15.45 22.2 15 22.2Z" fill="#F2CEA5"/>
<path d="M17.1 18.45C16.53 19.05 15.54 19.35 14.67 19.17C13.86 18.99 13.26 18.57 12.96 17.88L17.1 18.45Z" fill="#A3705F"/>
<path d="M17.1 18.45C16.53 19.05 15.54 19.35 14.67 19.17C13.86 18.99 13.26 18.57 12.96 17.88L17.1 18.45Z" stroke="#A3705F" stroke-linecap="round" stroke-linejoin="round"/>
<path d="M17.7 14.1C18.0314 14.1 18.3 13.8314 18.3 13.5C18.3 13.1686 18.0314 12.9 17.7 12.9C17.3686 12.9 17.1 13.1686 17.1 13.5C17.1 13.8314 17.3686 14.1 17.7 14.1Z" fill="#291F21"/>
<path d="M12.3 14.1C12.6314 14.1 12.9 13.8314 12.9 13.5C12.9 13.1686 12.6314 12.9 12.3 12.9C11.9686 12.9 11.7 13.1686 11.7 13.5C11.7 13.8314 11.9686 14.1 12.3 14.1Z" fill="#291F21"/>
<path d="M10.5 12.6C10.5 12.6 10.83 11.7 12.33 11.7C13.35 11.7 13.95 12.15 14.25 12.6" stroke="#CC9872" stroke-width="2"/>
<path d="M19.53 12.6C19.53 12.6 19.2 11.7 17.7 11.7C16.26 11.7 15.6 12.6 15.6 13.2C15.6 13.77 15.6 15.9 15.6 15.9" stroke="#BB8660" stroke-width="2"/>
<path d="M20.64 14.46C20.64 14.46 20.88 12.57 21.75 12.3C21.87 11.76 22.2 10.2 22.2 9.33C22.2 8.46 22.11 7.62 21.63 6.9C21.09 6.12 19.95 5.67 19.35 5.67C18.66 6.09 17.04 7.05 16.53 7.62C16.26 7.92 16.65 8.16 16.65 8.16C16.65 8.16 17.01 8.01 17.16 7.98C17.91 7.77 19.56 7.62 20.07 8.37C20.7 9.27 20.7 11.91 20.7 12.3C20.7 12.66 20.64 14.46 20.64 14.46Z" fill="#452228"/>
<path d="M8.24999 12.3C9.11999 12.6 9.35999 14.46 9.35999 14.46C9.35999 14.46 9.29999 12.66 9.29999 12.3C9.29999 11.82 9.35999 9.57 10.32 8.49C11.4 7.29 12.84 6.9 13.65 7.44C14.07 7.71 15.48 9.09 16.98 7.95C17.88 7.26 19.53 5.7 19.53 5.7C19.53 5.7 18.66 3.03 14.7 3.33C13.02 3.48 11.16 3.06 11.16 3.06C11.16 3.06 11.13 3.81 11.43 4.2C8.93999 4.92 8.12999 6.72 7.88999 8.1C7.82999 8.37 7.79999 8.64 7.79999 8.91C7.79999 9.06 7.79999 9.21 7.79999 9.33C7.79999 10.2 8.12999 11.73 8.24999 12.3Z" fill="#6B363E"/>
</svg>
