<svg width="30" height="31" viewBox="0 0 30 31" fill="none" xmlns="http://www.w3.org/2000/svg">
<g clip-path="url(#clip0_8_583)">
<path d="M30 0.5H0V30.5H30V0.5Z" fill="#1E1F24"/>
<path d="M19.5 23.27L27.87 25.58C28.83 25.91 29.58 26.63 30 27.56V30.5H0V27.56C0.39 26.63 1.17 25.91 2.13 25.58L10.5 23.27V18.8H19.5V23.27Z" fill="#D4B08C"/>
<path d="M15.06 24.5H12.9L11.46 23H0V30.5H15.06H30.12V23H18.66L17.22 24.5H15.06Z" fill="#70A619"/>
<path d="M15 22.7C14.55 22.7 13.95 22.61 13.56 22.43C13.08 22.22 11.4 21.05 10.83 20.54C10.08 19.85 9.69 19.01 9.57 17.54C9.45 16.07 9 10.82 9 9.61999C9 7.90999 10.53 5.26999 14.97 5.26999C19.41 5.26999 20.94 7.90999 20.94 9.61999C20.94 10.82 20.49 16.07 20.37 17.54C20.25 19.01 19.89 19.85 19.11 20.54C18.54 21.05 16.83 22.22 16.38 22.43C16.05 22.61 15.45 22.7 15 22.7Z" fill="#F2CEA5"/>
<path d="M15 22.7C14.55 22.7 13.95 22.61 13.56 22.43C13.08 22.22 11.4 21.05 10.83 20.54C10.08 19.85 9.69 19.01 9.57 17.54C9.45 16.07 9 10.82 9 9.61999C9 7.90999 10.53 5.26999 14.97 5.26999C19.41 5.26999 20.94 7.90999 20.94 9.61999C20.94 10.82 20.49 16.07 20.37 17.54C20.25 19.01 19.89 19.85 19.11 20.54C18.54 21.05 16.83 22.22 16.38 22.43C16.05 22.61 15.45 22.7 15 22.7Z" fill="#F2CEA5"/>
<path d="M14.97 18.5C14.31 18.47 14.55 17.9 13.56 17.9C12.57 17.9 11.94 18.41 11.67 18.8L9.27 15.5V23.6H15H20.73V15.5L18.33 18.8C18.03 18.44 17.43 17.93 16.44 17.9C15.45 17.87 15.63 18.47 14.97 18.5C15 18.5 14.97 18.5 14.97 18.5ZM14.97 19.1C14.25 19.1 14.52 18.8 13.74 18.8C12.69 18.8 12.24 19.01 12.24 19.55C12.24 20.09 12.6 20.84 13.74 20.9C14.07 20.87 14.25 20.78 14.34 20.66C14.34 20.48 14.46 20.27 14.97 20.3C15.48 20.27 15.57 20.48 15.6 20.66C15.69 20.78 15.87 20.9 16.2 20.9C17.34 20.84 17.7 20.09 17.7 19.55C17.7 19.01 17.25 18.8 16.2 18.8C15.45 18.8 15.69 19.1 14.97 19.1C15 19.1 14.97 19.1 14.97 19.1Z" fill="white"/>
<path d="M15.9 20H14.1C13.92 20 13.8 19.88 13.8 19.7C13.8 19.52 13.92 19.4 14.1 19.4H15.9C16.08 19.4 16.2 19.52 16.2 19.7C16.2 19.88 16.08 20 15.9 20Z" fill="#A3705F"/>
<path d="M17.7 14.6C18.03 14.6 18.3 14.33 18.3 14C18.3 13.67 18.03 13.4 17.7 13.4C17.37 13.4 17.1 13.67 17.1 14C17.1 14.33 17.37 14.6 17.7 14.6ZM12.3 14.6C12.63 14.6 12.9 14.33 12.9 14C12.9 13.67 12.63 13.4 12.3 13.4C11.97 13.4 11.7 13.67 11.7 14C11.7 14.33 11.97 14.6 12.3 14.6Z" fill="#262626"/>
<path d="M13.98 13.55C13.83 13.31 13.41 12.8 12.33 12.8C11.1 12.8 10.8 13.49 10.8 13.52L10.23 13.31C10.26 13.28 10.65 12.23 12.33 12.23C13.71 12.23 14.31 12.95 14.49 13.28L13.98 13.55Z" fill="#CC9872"/>
<path d="M15.3 16.7C15.3 16.61 15.3 14.57 15.3 14C15.3 13.25 16.05 12.23 17.7 12.2C19.35 12.2 19.77 13.25 19.8 13.28L19.23 13.49C19.23 13.46 18.93 12.8 17.7 12.77C16.47 12.77 15.9 13.49 15.9 13.97C15.9 14.54 15.9 16.64 15.9 16.67L15.3 16.7Z" fill="#BB8660"/>
<path d="M10.53 22.82L11.04 21.98L14.91 23.75L18.84 22.28L19.5 22.94V24.89C19.5 24.89 16.26 28.07 15 28.1C13.74 28.1 10.53 24.65 10.53 24.65V22.82Z" fill="#D4B08C"/>
<path d="M19.5 23.27C19.47 23.99 19.5 23.99 19.5 24.56C19.5 28.79 16.95 30.47 16.95 30.47H16.41H15.09H13.8H13.26C13.26 30.47 10.5 28.46 10.5 24.86C10.5 24.26 10.5 23.54 10.5 23.27C10.8 23.57 11.31 25.76 15.12 25.76C18.93 25.76 19.2 23.57 19.5 23.27Z" fill="white"/>
<path d="M17.7 9.5H12.33V10.1H17.7V9.5Z" fill="#E1BC90"/>
<path d="M16.5 10.7H13.53V11.3H16.5V10.7Z" fill="#E1BC90"/>
<path d="M18.78 6.26001C18.78 6.26001 19.83 7.58001 19.98 9.53001C20.04 10.4 19.68 11.03 20.4 12.71C20.73 13.46 20.73 13.61 20.73 13.91C21.54 11.36 22.05 7.76001 18.78 6.26001ZM11.22 6.26001C11.22 6.26001 10.17 7.58001 10.02 9.53001C9.96 10.4 10.32 11.03 9.6 12.71C9.27 13.46 9.27 13.61 9.27 13.91C8.46 11.36 7.95 7.76001 11.22 6.26001Z" fill="white"/>
</g>
<defs>
<clipPath id="clip0_8_583">
<rect width="30" height="30" fill="white" transform="translate(0 0.5)"/>
</clipPath>
</defs>
</svg>
