<svg width="30" height="30" viewBox="0 0 30 30" fill="none" xmlns="http://www.w3.org/2000/svg">
<path d="M14.1961 25.0424C13.9358 25.0424 13.677 25.0029 13.4286 24.9252C12.361 24.5918 11.6784 23.6572 11.6889 22.5451C11.6983 21.5285 11.5043 20.6408 11.1129 19.9084C10.633 19.0102 9.83383 18.3188 8.73695 17.8529C8.63042 17.8078 8.53381 17.7422 8.45264 17.6598C8.37148 17.5774 8.30734 17.4798 8.26389 17.3725C8.22045 17.2653 8.19854 17.1506 8.19943 17.0349C8.20032 16.9192 8.22399 16.8049 8.26908 16.6983C8.31417 16.5918 8.3798 16.4952 8.46223 16.414C8.54466 16.3329 8.64226 16.2687 8.74948 16.2253C8.85669 16.1818 8.97141 16.1599 9.08709 16.1608C9.20277 16.1617 9.31714 16.1854 9.42367 16.2305C12.0838 17.359 13.4748 19.5469 13.4461 22.5586C13.4468 22.7113 13.4961 22.8597 13.5867 22.9826C13.6774 23.1054 13.8048 23.1962 13.9504 23.2419C14.0961 23.2875 14.2525 23.2857 14.3971 23.2366C14.5416 23.1875 14.6668 23.0937 14.7545 22.9688C16.4151 20.5248 14.9579 17.8342 14.9432 17.8072C14.8691 17.6734 14.8311 17.5226 14.8332 17.3696C14.8352 17.2167 14.8771 17.0669 14.9547 16.9351C15.0324 16.8033 15.1431 16.6941 15.2759 16.6182C15.4087 16.5423 15.559 16.5024 15.712 16.5023H24.0112C24.2283 16.4966 24.4345 16.4063 24.586 16.2507C24.7375 16.0952 24.8223 15.8866 24.8223 15.6694C24.8223 15.4523 24.7375 15.2437 24.586 15.0881C24.4345 14.9326 24.2283 14.8423 24.0112 14.8365H22.8129C22.5798 14.8365 22.3563 14.7439 22.1915 14.5791C22.0266 14.4143 21.934 14.1907 21.934 13.9576C21.934 13.7245 22.0266 13.501 22.1915 13.3361C22.3563 13.1713 22.5798 13.0787 22.8129 13.0787C22.9223 13.0788 23.0306 13.0573 23.1317 13.0155C23.2327 12.9737 23.3245 12.9123 23.4019 12.835C23.4792 12.7577 23.5405 12.6659 23.5823 12.5648C23.6241 12.4638 23.6456 12.3555 23.6455 12.2461C23.6452 12.0254 23.5574 11.8138 23.4013 11.6577C23.2453 11.5016 23.0337 11.4138 22.8129 11.4135H21.6153C21.3822 11.4135 21.1586 11.3209 20.9938 11.1561C20.829 10.9912 20.7364 10.7677 20.7364 10.5346C20.7364 10.3015 20.829 10.0779 20.9938 9.91309C21.1586 9.74826 21.3822 9.65567 21.6153 9.65567C21.8361 9.65567 22.0479 9.56794 22.204 9.4118C22.3602 9.25565 22.4479 9.04387 22.4479 8.82305C22.4479 8.60223 22.3602 8.39045 22.204 8.2343C22.0479 8.07815 21.8361 7.99043 21.6153 7.99043H20.417C20.1839 7.99043 19.9604 7.89783 19.7956 7.73301C19.6307 7.56818 19.5381 7.34463 19.5381 7.11153C19.5381 6.87842 19.6307 6.65487 19.7956 6.49004C19.9604 6.32522 20.1839 6.23262 20.417 6.23262C20.6379 6.23262 20.8496 6.1449 21.0058 5.98875C21.1619 5.8326 21.2497 5.62083 21.2497 5.4C21.2497 5.17918 21.1619 4.9674 21.0058 4.81125C20.8496 4.65511 20.6379 4.56738 20.417 4.56738H15.3399C14.5584 4.56633 13.7831 4.70524 13.0506 4.97754L9.09555 6.44649C8.88298 6.50703 8.65541 6.48526 8.45818 6.38552C8.26095 6.28579 8.10853 6.1154 8.0313 5.90832C7.95407 5.70123 7.95769 5.47265 8.04145 5.26812C8.1252 5.06359 8.28295 4.89812 8.48324 4.80469L12.4383 3.33574C13.3665 2.98938 14.3492 2.81216 15.3399 2.8125H20.417C20.8529 2.8133 21.2814 2.92395 21.6632 3.13422C22.0449 3.34449 22.3675 3.64759 22.6011 4.01552C22.8347 4.38345 22.9718 4.80433 22.9997 5.23926C23.0276 5.67419 22.9455 6.10914 22.7608 6.50391C23.3683 6.80481 23.8339 7.33158 24.0578 7.97146C24.2818 8.61135 24.2463 9.31348 23.959 9.92754C24.5663 10.2285 25.0316 10.7553 25.2554 11.395C25.4793 12.0347 25.4438 12.7367 25.1567 13.3506C25.6806 13.6097 26.1016 14.0383 26.3511 14.5669C26.6006 15.0955 26.664 15.6929 26.531 16.2621C26.398 16.8312 26.0764 17.3387 25.6185 17.702C25.1606 18.0653 24.5933 18.263 24.0088 18.2631H16.9987C17.3954 19.6172 17.6567 21.8285 16.2088 23.9596C15.9889 24.2922 15.6899 24.5652 15.3387 24.7542C14.9875 24.9431 14.5949 25.0422 14.1961 25.0424Z" fill="black"/>
<path d="M9.08204 17.9209H4.0506C3.8175 17.9209 3.59394 17.8283 3.42912 17.6635C3.26429 17.4987 3.17169 17.2751 3.17169 17.042V4.99278C3.17169 4.75967 3.26429 4.53612 3.42912 4.37129C3.59394 4.20647 3.8175 4.11387 4.0506 4.11387H9.08204C9.31514 4.11387 9.5387 4.20647 9.70352 4.37129C9.86835 4.53612 9.96095 4.75967 9.96095 4.99278V17.042C9.96095 17.2751 9.86835 17.4987 9.70352 17.6635C9.5387 17.8283 9.31514 17.9209 9.08204 17.9209ZM4.93126 16.1631H8.20314V5.87168H4.9295L4.93126 16.1631Z" fill="black"/>
</svg>
