<svg width="30" height="30" viewBox="0 0 30 30" fill="none" xmlns="http://www.w3.org/2000/svg">
<path d="M20.417 25.3535H15.3399C14.3493 25.3544 13.3666 25.1778 12.4383 24.832L8.48321 23.3631C8.26659 23.2805 8.09137 23.1157 7.99569 22.9045C7.90002 22.6934 7.89165 22.453 7.97241 22.2357C8.05316 22.0183 8.2165 21.8417 8.42686 21.7443C8.63721 21.6469 8.87754 21.6365 9.09552 21.7154L13.05 23.1844C13.7827 23.4566 14.5582 23.5955 15.3399 23.5945H20.417C20.6378 23.5945 20.8496 23.5068 21.0057 23.3507C21.1619 23.1945 21.2496 22.9827 21.2496 22.7619C21.2496 22.5411 21.1619 22.3293 21.0057 22.1732C20.8496 22.017 20.6378 21.9293 20.417 21.9293C20.1839 21.9293 19.9603 21.8367 19.7955 21.6719C19.6307 21.507 19.5381 21.2835 19.5381 21.0504C19.5381 20.8173 19.6307 20.5937 19.7955 20.4289C19.9603 20.2641 20.1839 20.1715 20.417 20.1715H21.6152C21.8361 20.1715 22.0478 20.0838 22.204 19.9276C22.3601 19.7715 22.4479 19.5597 22.4479 19.3389C22.4479 19.118 22.3601 18.9063 22.204 18.7501C22.0478 18.594 21.8361 18.5062 21.6152 18.5062C21.3821 18.5062 21.1586 18.4136 20.9938 18.2488C20.8289 18.084 20.7363 17.8604 20.7363 17.6273C20.7363 17.3942 20.8289 17.1707 20.9938 17.0059C21.1586 16.841 21.3821 16.7484 21.6152 16.7484H22.8129C22.9776 16.7485 23.1386 16.6997 23.2756 16.6082C23.4126 16.5167 23.5193 16.3866 23.5824 16.2345C23.6454 16.0823 23.6619 15.9149 23.6297 15.7533C23.5976 15.5918 23.5183 15.4434 23.4018 15.327C23.3247 15.2493 23.2329 15.1878 23.1318 15.1459C23.0307 15.1041 22.9223 15.0828 22.8129 15.0832C22.5798 15.0832 22.3562 14.9906 22.1914 14.8258C22.0266 14.6609 21.934 14.4374 21.934 14.2043C21.934 13.9712 22.0266 13.7476 22.1914 13.5828C22.3562 13.418 22.5798 13.3254 22.8129 13.3254H24.0111C24.1756 13.3249 24.3362 13.2756 24.4727 13.1839C24.6093 13.0922 24.7156 12.9621 24.7782 12.8101C24.8409 12.658 24.8572 12.4908 24.8249 12.3296C24.7927 12.1683 24.7134 12.0202 24.5971 11.9039C24.5204 11.8265 24.4291 11.7651 24.3285 11.7232C24.228 11.6812 24.1201 11.6596 24.0111 11.6596H15.7119C15.559 11.6598 15.4086 11.62 15.2757 11.5443C15.1428 11.4686 15.032 11.3595 14.9542 11.2278C14.8764 11.0962 14.8343 10.9465 14.832 10.7936C14.8298 10.6406 14.8675 10.4898 14.9414 10.3559C15.2084 9.81414 15.3903 9.23447 15.4805 8.6373C15.6791 7.35586 15.4342 6.19746 14.7527 5.19434C14.665 5.0694 14.5398 4.97559 14.3953 4.9265C14.2507 4.8774 14.0943 4.87555 13.9486 4.92121C13.803 4.96688 13.6756 5.05769 13.5849 5.18052C13.4943 5.30335 13.445 5.45183 13.4443 5.60449C13.4731 8.61504 12.082 10.8029 9.42189 11.9326C9.31523 11.9803 9.20014 12.0063 9.08333 12.009C8.96653 12.0117 8.85036 11.9911 8.74162 11.9483C8.63288 11.9056 8.53375 11.8416 8.45002 11.7601C8.3663 11.6786 8.29966 11.5813 8.25401 11.4737C8.20836 11.3662 8.18461 11.2506 8.18415 11.1338C8.18369 11.0169 8.20652 10.9012 8.25132 10.7933C8.29612 10.6854 8.36199 10.5875 8.44507 10.5053C8.52814 10.4232 8.62677 10.3584 8.73517 10.3148C9.83204 9.84609 10.6313 9.15762 11.1111 8.25938C11.5025 7.52637 11.6971 6.63926 11.6871 5.62266C11.6783 4.51172 12.3633 3.57422 13.4285 3.24258C14.4938 2.91094 15.5854 3.28828 16.2088 4.20703C17.6566 6.3375 17.3953 8.54883 16.9986 9.90293H24.0111C24.5956 9.903 25.1629 10.1008 25.6208 10.464C26.0787 10.8273 26.4003 11.3348 26.5333 11.904C26.6663 12.4731 26.6029 13.0705 26.3534 13.5991C26.1039 14.1277 25.6829 14.5564 25.159 14.8154C25.4461 15.4294 25.4816 16.1313 25.2577 16.771C25.0339 17.4108 24.5686 17.9375 23.9613 18.2385C24.2486 18.8525 24.2841 19.5547 24.0601 20.1945C23.8362 20.8344 23.3706 21.3612 22.7631 21.6621C22.9481 22.0568 23.0305 22.4919 23.0028 22.9269C22.975 23.362 22.838 23.783 22.6043 24.151C22.3706 24.5191 22.0479 24.8222 21.666 25.0324C21.2841 25.2426 20.8553 25.353 20.4193 25.3535H20.417Z" fill="black"/>
<path d="M9.08204 24.0522H4.0506C3.8175 24.0522 3.59394 23.9596 3.42912 23.7947C3.26429 23.6299 3.17169 23.4063 3.17169 23.1732V11.1246C3.17169 10.8915 3.26429 10.668 3.42912 10.5031C3.59394 10.3383 3.8175 10.2457 4.0506 10.2457H9.08204C9.31514 10.2457 9.5387 10.3383 9.70352 10.5031C9.86835 10.668 9.96095 10.8915 9.96095 11.1246V23.1732C9.96095 23.4063 9.86835 23.6299 9.70352 23.7947C9.5387 23.9596 9.31514 24.0522 9.08204 24.0522ZM4.93126 22.2943H8.20314V12.0035H4.9295L4.93126 22.2943Z" fill="black"/>
</svg>
