<svg width="68" height="64" viewBox="0 0 68 64" fill="none" xmlns="http://www.w3.org/2000/svg">
<g filter="url(#filter0_d_4_13)">
<path d="M59 37L49 47L46 54L53 51L63 41L59 37Z" fill="#42B9CC"/>
<path d="M59 9H5V19H59V9Z" fill="#42B9CC"/>
<path d="M45 47C45 46.7348 44.8946 46.4804 44.7071 46.2929C44.5196 46.1054 44.2652 46 44 46H6V20H58V34C58 34.2652 58.1054 34.5196 58.2929 34.7071C58.4804 34.8946 58.7348 35 59 35C59.2652 35 59.5196 34.8946 59.7071 34.7071C59.8946 34.5196 60 34.2652 60 34V9C60 8.73478 59.8946 8.48043 59.7071 8.29289C59.5196 8.10536 59.2652 8 59 8H5C4.73478 8 4.48043 8.10536 4.29289 8.29289C4.10536 8.48043 4 8.73478 4 9V47C4 47.2652 4.10536 47.5196 4.29289 47.7071C4.48043 47.8946 4.73478 48 5 48H44C44.2652 48 44.5196 47.8946 44.7071 47.7071C44.8946 47.5196 45 47.2652 45 47ZM58 10V18H6V10H58Z" fill="black"/>
<path d="M10 16C11.1046 16 12 15.1046 12 14C12 12.8954 11.1046 12 10 12C8.89543 12 8 12.8954 8 14C8 15.1046 8.89543 16 10 16Z" fill="black"/>
<path d="M16 16C17.1046 16 18 15.1046 18 14C18 12.8954 17.1046 12 16 12C14.8954 12 14 12.8954 14 14C14 15.1046 14.8954 16 16 16Z" fill="black"/>
<path d="M22 16C23.1046 16 24 15.1046 24 14C24 12.8954 23.1046 12 22 12C20.8954 12 20 12.8954 20 14C20 15.1046 20.8954 16 22 16Z" fill="black"/>
<path d="M36 32C36 33.78 36.5278 35.5201 37.5168 37.0001C38.5057 38.4802 39.9113 39.6337 41.5559 40.3149C43.2004 40.9961 45.01 41.1743 46.7558 40.8271C48.5016 40.4798 50.1053 39.6226 51.364 38.364C52.6226 37.1053 53.4798 35.5016 53.8271 33.7558C54.1743 32.01 53.9961 30.2004 53.3149 28.5558C52.6337 26.9113 51.4802 25.5057 50.0001 24.5168C48.5201 23.5278 46.78 23 45 23C42.6139 23.0026 40.3262 23.9517 38.639 25.639C36.9517 27.3262 36.0026 29.6139 36 32ZM46.974 31H43.026C43.214 27.1 44.464 25 45 25C45.536 25 46.786 27.1 46.974 31ZM45 39C44.464 39 43.214 36.9 43.026 33H46.973C46.786 36.9 45.536 39 45 39ZM42.1 25.639C41.4399 27.352 41.0764 29.1649 41.025 31H38.08C38.2492 29.8418 38.7058 28.7445 39.408 27.8081C40.1102 26.8716 41.0356 26.1259 42.1 25.639ZM38.08 33H41.025C41.0764 34.8351 41.4399 36.648 42.1 38.361C41.0356 37.8741 40.1102 37.1284 39.408 36.1919C38.7058 35.2555 38.2492 34.1582 38.08 33ZM47.9 38.361C48.5601 36.648 48.9236 34.8351 48.975 33H51.92C51.7508 34.1582 51.2942 35.2555 50.592 36.1919C49.8898 37.1284 48.9644 37.8741 47.9 38.361ZM51.92 31H48.975C48.9236 29.1649 48.5601 27.352 47.9 25.639C48.9644 26.1259 49.8898 26.8716 50.592 27.8081C51.2942 28.7445 51.7508 29.8418 51.92 31Z" fill="black"/>
<path d="M52 17H56C56.2652 17 56.5196 16.8946 56.7071 16.7071C56.8946 16.5196 57 16.2652 57 16V12C57 11.7348 56.8946 11.4804 56.7071 11.2929C56.5196 11.1054 56.2652 11 56 11H52C51.7348 11 51.4804 11.1054 51.2929 11.2929C51.1054 11.4804 51 11.7348 51 12V16C51 16.2652 51.1054 16.5196 51.2929 16.7071C51.4804 16.8946 51.7348 17 52 17ZM53 13H55V15H53V13Z" fill="black"/>
<path d="M63.707 40.293L59.707 36.293C59.5195 36.1055 59.2652 36.0002 59 36.0002C58.7348 36.0002 58.4805 36.1055 58.293 36.293L48.293 46.293C48.2203 46.3711 48.1608 46.4607 48.117 46.558L48.106 46.552L44.106 54.552C44.0119 54.7398 43.9794 54.9524 44.0129 55.1597C44.0465 55.367 44.1444 55.5585 44.293 55.707C44.4415 55.8555 44.633 55.9535 44.8403 55.9871C45.0476 56.0206 45.2602 55.9881 45.448 55.894L53.448 51.894L53.442 51.883C53.5393 51.8392 53.6288 51.7797 53.707 51.707L63.707 41.707C63.8945 41.5195 63.9998 41.2652 63.9998 41C63.9998 40.7348 63.8945 40.4805 63.707 40.293ZM61.586 41L60.946 41.64L58.36 39.054L59 38.414L61.586 41ZM49.274 48.688L51.312 50.726L47.236 52.764L49.274 48.688ZM53 49.588L50.414 47L56.946 40.468L59.532 43.054L53 49.588Z" fill="black"/>
<path d="M33 24H19C18.7348 24 18.4804 24.1054 18.2929 24.2929C18.1054 24.4804 18 24.7348 18 25C18 25.2652 18.1054 25.5196 18.2929 25.7071C18.4804 25.8946 18.7348 26 19 26H33C33.2652 26 33.5196 25.8946 33.7071 25.7071C33.8946 25.5196 34 25.2652 34 25C34 24.7348 33.8946 24.4804 33.7071 24.2929C33.5196 24.1054 33.2652 24 33 24Z" fill="black"/>
<path d="M33 28H19C18.7348 28 18.4804 28.1054 18.2929 28.2929C18.1054 28.4804 18 28.7348 18 29C18 29.2652 18.1054 29.5196 18.2929 29.7071C18.4804 29.8946 18.7348 30 19 30H33C33.2652 30 33.5196 29.8946 33.7071 29.7071C33.8946 29.5196 34 29.2652 34 29C34 28.7348 33.8946 28.4804 33.7071 28.2929C33.5196 28.1054 33.2652 28 33 28Z" fill="black"/>
<path d="M33 32H11C10.7348 32 10.4804 32.1054 10.2929 32.2929C10.1054 32.4804 10 32.7348 10 33C10 33.2652 10.1054 33.5196 10.2929 33.7071C10.4804 33.8946 10.7348 34 11 34H33C33.2652 34 33.5196 33.8946 33.7071 33.7071C33.8946 33.5196 34 33.2652 34 33C34 32.7348 33.8946 32.4804 33.7071 32.2929C33.5196 32.1054 33.2652 32 33 32Z" fill="black"/>
<path d="M33 36H11C10.7348 36 10.4804 36.1054 10.2929 36.2929C10.1054 36.4804 10 36.7348 10 37C10 37.2652 10.1054 37.5196 10.2929 37.7071C10.4804 37.8946 10.7348 38 11 38H33C33.2652 38 33.5196 37.8946 33.7071 37.7071C33.8946 37.5196 34 37.2652 34 37C34 36.7348 33.8946 36.4804 33.7071 36.2929C33.5196 36.1054 33.2652 36 33 36Z" fill="black"/>
<path d="M33 40H11C10.7348 40 10.4804 40.1054 10.2929 40.2929C10.1054 40.4804 10 40.7348 10 41C10 41.2652 10.1054 41.5196 10.2929 41.7071C10.4804 41.8946 10.7348 42 11 42H33C33.2652 42 33.5196 41.8946 33.7071 41.7071C33.8946 41.5196 34 41.2652 34 41C34 40.7348 33.8946 40.4804 33.7071 40.2929C33.5196 40.1054 33.2652 40 33 40Z" fill="black"/>
<path d="M11 30H15C15.2652 30 15.5196 29.8946 15.7071 29.7071C15.8946 29.5196 16 29.2652 16 29V25C16 24.7348 15.8946 24.4804 15.7071 24.2929C15.5196 24.1054 15.2652 24 15 24H11C10.7348 24 10.4804 24.1054 10.2929 24.2929C10.1054 24.4804 10 24.7348 10 25V29C10 29.2652 10.1054 29.5196 10.2929 29.7071C10.4804 29.8946 10.7348 30 11 30ZM12 26H14V28H12V26Z" fill="black"/>
</g>
<defs>
<filter id="filter0_d_4_13" x="-2" y="0" width="72" height="72" filterUnits="userSpaceOnUse" color-interpolation-filters="sRGB">
<feFlood flood-opacity="0" result="BackgroundImageFix"/>
<feColorMatrix in="SourceAlpha" type="matrix" values="0 0 0 0 0 0 0 0 0 0 0 0 0 0 0 0 0 0 127 0" result="hardAlpha"/>
<feOffset dy="4"/>
<feGaussianBlur stdDeviation="2"/>
<feComposite in2="hardAlpha" operator="out"/>
<feColorMatrix type="matrix" values="0 0 0 0 0 0 0 0 0 0 0 0 0 0 0 0 0 0 0.25 0"/>
<feBlend mode="normal" in2="BackgroundImageFix" result="effect1_dropShadow_4_13"/>
<feBlend mode="normal" in="SourceGraphic" in2="effect1_dropShadow_4_13" result="shape"/>
</filter>
</defs>
</svg>
